<svg xmlns="http://www.w3.org/2000/svg" viewBox="0 0 640 480">
  <path fill="#ff0000" d="M0 0h640v480H0z"/>
  <path fill="#fff" d="M160 0h320v480H160z"/>
  <path fill="#ff0000" d="m288 168 19.2-38.4L296 156.8l-16-28.8 12.8 28.8-25.6-22.4 22.4 22.4L256 128l16 28.8-8-25.6 19.2 35.2V128h12.8v43.2l19.2-35.2-8 25.6 16-28.8L384 128l-33.6 30.4 22.4-22.4-25.6 22.4 12.8-28.8-16 28.8L344 129.6l19.2 38.4h12.8V128h-9.6l-16 32-12.8-32h-9.6l-12.8 32-12.8-32H288v40zm41.6 44.8L320 232l-9.6-19.2zM320 240v112l-16-16-16 16v-22.4l-35.2 32 3.2-41.6-41.6 28.8 25.6-28.8-44.8 16 35.2-22.4-44.8 3.2 41.6-16L240 320h112l-28.8-19.2 41.6 16-44.8-3.2 35.2 22.4-44.8-16 25.6 28.8-41.6-28.8 3.2 41.6-35.2-32V296l-16-16-16 16v112l3.2-1.6 6.4-9.6 6.4-16 6.4-22.4 3.2-19.2 3.2-20.8-3.2 20.8-3.2 19.2-6.4 22.4-6.4 16-6.4 9.6-3.2 1.6-3.2 1.6V240h12.8v56l22.4-22.4 22.4 22.4v-25.6l16-16 16 16v25.6l22.4-22.4 22.4 22.4V240h-12.8z"/>
</svg>