<svg xmlns="http://www.w3.org/2000/svg" viewBox="0 0 640 480">
  <path fill="#bd3d44" d="M0 0h640v480H0z"/>
  <path fill="#fff" d="M0 41.7h640v41.7H0zm0 83.4h640v41.7H0zm0 83.3h640v41.7H0zM0 250h640v41.7H0zm0 83.4h640v41.7H0zm0 83.3h640v41.7H0z"/>
  <path fill="#192f5d" d="M0 0h320v250H0z"/>
  <path fill="#fff" d="m61.2 35.8 9 27.6 27-11-19.8 21.2 27 11-28.8-9.6-10.8 26.4v-32.4l-28.8-9.6 27-11-18-22.8 25.2 14.4zm64 0 9 27.6 27-11-19.8 21.2 27 11-28.8-9.6-10.8 26.4v-32.4l-28.8-9.6 27-11-18-22.8 25.2 14.4zm64 0 9 27.6 27-11-19.8 21.2 27 11-28.8-9.6-10.8 26.4v-32.4l-28.8-9.6 27-11-18-22.8 25.2 14.4zm64 0 9 27.6 27-11-19.8 21.2 27 11-28.8-9.6-10.8 26.4v-32.4l-28.8-9.6 27-11-18-22.8 25.2 14.4zM30.1 85l9 27.6 27-11-19.8 21.2 27 11-28.8-9.6-10.8 26.4v-32.4l-28.8-9.6 27-11-18-22.8 25.2 14.4zm64 0 9 27.6 27-11-19.8 21.2 27 11-28.8-9.6-10.8 26.4v-32.4l-28.8-9.6 27-11-18-22.8 25.2 14.4zm64 0 9 27.6 27-11-19.8 21.2 27 11-28.8-9.6-10.8 26.4v-32.4l-28.8-9.6 27-11-18-22.8 25.2 14.4zm64 0 9 27.6 27-11-19.8 21.2 27 11-28.8-9.6-10.8 26.4v-32.4l-28.8-9.6 27-11-18-22.8 25.2 14.4zm64 0 9 27.6 27-11-19.8 21.2 27 11-28.8-9.6-10.8 26.4v-32.4l-28.8-9.6 27-11-18-22.8 25.2 14.4zm-288 49.2 9 27.6 27-11-19.8 21.2 27 11-28.8-9.6-10.8 26.4v-32.4l-28.8-9.6 27-11-18-22.8 25.2 14.4zm64 0 9 27.6 27-11-19.8 21.2 27 11-28.8-9.6-10.8 26.4v-32.4l-28.8-9.6 27-11-18-22.8 25.2 14.4zm64 0 9 27.6 27-11-19.8 21.2 27 11-28.8-9.6-10.8 26.4v-32.4l-28.8-9.6 27-11-18-22.8 25.2 14.4zm64 0 9 27.6 27-11-19.8 21.2 27 11-28.8-9.6-10.8 26.4v-32.4l-28.8-9.6 27-11-18-22.8 25.2 14.4zM30.1 184.2 9 211.8l27-11-19.8 21.2 27 11-28.8-9.6-10.8 26.4v-32.4l-28.8-9.6 27-11-18-22.8 25.2 14.4zm64 0 9 27.6 27-11-19.8 21.2 27 11-28.8-9.6-10.8 26.4v-32.4l-28.8-9.6 27-11-18-22.8 25.2 14.4zm64 0 9 27.6 27-11-19.8 21.2 27 11-28.8-9.6-10.8 26.4v-32.4l-28.8-9.6 27-11-18-22.8 25.2 14.4zm64 0 9 27.6 27-11-19.8 21.2 27 11-28.8-9.6-10.8 26.4v-32.4l-28.8-9.6 27-11-18-22.8 25.2 14.4zm64 0 9 27.6 27-11-19.8 21.2 27 11-28.8-9.6-10.8 26.4v-32.4l-28.8-9.6 27-11-18-22.8 25.2 14.4z"/>
</svg>